<?xml version="1.0" encoding="UTF-8"?> <svg xmlns="http://www.w3.org/2000/svg" xmlns:xlink="http://www.w3.org/1999/xlink" version="1.1" id="Premiata" x="0px" y="0px" width="395px" height="220px" viewBox="0 0 395 220" style="enable-background:new 0 0 395 220;" xml:space="preserve"> <style type="text/css"> .st0{fill-rule:evenodd;clip-rule:evenodd;} </style> <title>Premiata</title> <g> <path class="st0" d="M163.9,79h10l14.4,27.4c0,0,9.7-18.4,14.6-27.4h10c0,19.7,0,41.5,0,62.1H203v-37.4l-11.4,20.8h-6.7l-11.3-21 v37.7h-9.7V79z"></path> <rect x="229.5" y="79" class="st0" width="11" height="62.1"></rect> <path class="st0" d="M12.2,141.1H3V79h24.6c0,0.1,0-0.1,0,0c7.9,0,14.9,4.7,14.9,11.2c0,5.1,0.2,13.8,0.2,18c0,6-6.6,10.8-15,10.8 H12.2V141.1z M12.2,110h16.2c2.1,0,4.5-1.3,4.5-3.4V99v-5.9c0-2.9-2.9-4.2-4.9-4.2H12.2V110z"></path> <path class="st0" d="M149.7,141.1H112V79h37.7v9.5c-9.6,0-27.8,0-27.8,0v15.3h21.4v9.4h-21.4v19h27.8V141.1z"></path> <path class="st0" d="M299.6,141.1h-11l-4.3-13.8h-16.4l-4.6,13.8h-11L271.3,79h9.2L299.6,141.1z M270,116.9h11.5l-5.9-19.2 L270,116.9z"></path> <polygon class="st0" points="327,141.1 316.7,141.1 316.7,89.2 301.1,89.2 301.1,79 342.6,79 342.6,89.2 327,89.2 "></polygon> <path class="st0" d="M95.9,111.6c1-2.3,1-7.6,0.9-12.6c-0.1-5.6,0.1-10.8-1.4-13.2c-2.5-4.1-6.8-6.1-12-6.8H56.6v62.1h10v-21.8h9.1 c2.9,0,4.6,7.3,5.7,10.3c1.8,4.9,4.4,11.5,4.4,11.5h10.5c-2.6-7.3-7.9-20.7-8-21.8C88.4,118.2,93.6,116.8,95.9,111.6 M87.2,106.2 c0,2.1-2.5,3.4-4.5,3.4H66.5V88.5h15.9c2,0,4.8,1.5,4.8,4.4V106.2z"></path> <path class="st0" d="M392,141.1h-11l-4.4-13.8h-16.4l-4.6,13.8h-11L363.8,79h9.3L392,141.1z M362.5,116.9H374l-5.9-19.2 L362.5,116.9z"></path> <path class="st0" d="M163.9,79h10l14.4,27.4c0,0,9.7-18.4,14.6-27.4h10c0,19.7,0,41.5,0,62.1H203v-37.4l-11.4,20.8h-6.7l-11.3-21 v37.7h-9.7V79z"></path> <rect x="229.5" y="79" class="st0" width="11" height="62.1"></rect> <path class="st0" d="M12.2,141.1H3V79h24.6c0,0.1,0-0.1,0,0c7.9,0,14.9,4.7,14.9,11.2c0,5.1,0.2,13.8,0.2,18c0,6-6.6,10.8-15,10.8 H12.2V141.1z M12.2,110h16.2c2.1,0,4.5-1.3,4.5-3.4V99v-5.9c0-2.9-2.9-4.2-4.9-4.2H12.2V110z"></path> <path class="st0" d="M149.7,141.1H112V79h37.7v9.5c-9.6,0-27.8,0-27.8,0v15.3h21.4v9.4h-21.4v19h27.8V141.1z"></path> <path class="st0" d="M299.6,141.1h-11l-4.3-13.8h-16.4l-4.6,13.8h-11L271.3,79h9.2L299.6,141.1z M270,116.9h11.5l-5.9-19.2 L270,116.9z"></path> <polygon class="st0" points="327,141.1 316.7,141.1 316.7,89.2 301.1,89.2 301.1,79 342.6,79 342.6,89.2 327,89.2 "></polygon> <path class="st0" d="M95.9,111.6c1-2.3,1-7.6,0.9-12.6c-0.1-5.6,0.1-10.8-1.4-13.2c-2.5-4.1-6.8-6.1-12-6.8H56.6v62.1h10v-21.8h9.1 c2.9,0,4.6,7.3,5.7,10.3c1.8,4.9,4.4,11.5,4.4,11.5h10.5c-2.6-7.3-7.9-20.7-8-21.8C88.4,118.2,93.6,116.8,95.9,111.6 M87.2,106.2 c0,2.1-2.5,3.4-4.5,3.4H66.5V88.5h15.9c2,0,4.8,1.5,4.8,4.4V106.2z"></path> </g> </svg> 